<?xml version="1.0" encoding="utf-8"?><svg xmlns="http://www.w3.org/2000/svg" xmlns:xlink="http://www.w3.org/1999/xlink" width="1280" height="601" preserveAspectRatio="xMidYMid" viewBox="0 0 1280 601" style="z-index:1;margin-right:-2px;display:block;background-repeat-y:initial;background-repeat-x:initial;background-color:rgb(255, 255, 255);animation-play-state:paused" ><g transform="translate(640,300.5) scale(1,1) translate(-640,-300.5)" style="transform:matrix(1, 0, 0, 1, 0, 0);animation-play-state:paused" ><g id="bk-0.794534530192724" style="animation-play-state:paused" ><path d="M 653 366 L 650 463 L 731 460 Z" stroke="#864b2a" fill="#864b2a" style="animation-play-state:paused" ></path>
<path d="M 731 460 L 751 370 L 653 366 Z" stroke="#884d2b" fill="#884d2b" style="animation-play-state:paused" ></path>
<path d="M 731 460 L 838 463 L 751 370 Z" stroke="#794224" fill="#794224" style="animation-play-state:paused" ></path>
<path d="M 653 366 L 551 464 L 650 463 Z" stroke="#8e512e" fill="#8e512e" style="animation-play-state:paused" ></path>
<path d="M 838 463 L 820 344 L 751 370 Z" stroke="#7e4526" fill="#7e4526" style="animation-play-state:paused" ></path>
<path d="M 751 370 L 750 283 L 653 366 Z" stroke="#955731" fill="#955731" style="animation-play-state:paused" ></path>
<path d="M 820 344 L 750 283 L 751 370 Z" stroke="#91532f" fill="#91532f" style="animation-play-state:paused" ></path>
<path d="M 551 464 L 641 556 L 650 463 Z" stroke="#834928" fill="#834928" style="animation-play-state:paused" ></path>
<path d="M 650 463 L 641 556 L 731 460 Z" stroke="#7a4224" fill="#7a4224" style="animation-play-state:paused" ></path>
<path d="M 731 460 L 820 557 L 838 463 Z" stroke="#693721" fill="#693721" style="animation-play-state:paused" ></path>
<path d="M 641 556 L 746 563 L 731 460 Z" stroke="#703b22" fill="#703b22" style="animation-play-state:paused" ></path>
<path d="M 557 267 L 527 354 L 653 366 Z" stroke="#aa673b" fill="#aa673b" style="animation-play-state:paused" ></path>
<path d="M 653 366 L 527 354 L 551 464 Z" stroke="#9b5c34" fill="#9b5c34" style="animation-play-state:paused" ></path>
<path d="M 750 283 L 638 248 L 653 366 Z" stroke="#a46238" fill="#a46238" style="animation-play-state:paused" ></path>
<path d="M 746 563 L 820 557 L 731 460 Z" stroke="#673621" fill="#673621" style="animation-play-state:paused" ></path>
<path d="M 638 248 L 557 267 L 653 366 Z" stroke="#ad6a3d" fill="#ad6a3d" style="animation-play-state:paused" ></path>
<path d="M 429 458 L 542 555 L 551 464 Z" stroke="#935530" fill="#935530" style="animation-play-state:paused" ></path>
<path d="M 551 464 L 542 555 L 641 556 Z" stroke="#834929" fill="#834929" style="animation-play-state:paused" ></path>
<path d="M 936 273 L 850 269 L 820 344 Z" stroke="#90532f" fill="#90532f" style="animation-play-state:paused" ></path>
<path d="M 820 344 L 850 269 L 750 283 Z" stroke="#965732" fill="#965732" style="animation-play-state:paused" ></path>
<path d="M 750 283 L 727 145 L 638 248 Z" stroke="#b56f40" fill="#b56f40" style="animation-play-state:paused" ></path>
<path d="M 952 373 L 820 344 L 838 463 Z" stroke="#763f23" fill="#763f23" style="animation-play-state:paused" ></path>
<path d="M 820 557 L 945 458 L 838 463 Z" stroke="#603220" fill="#603220" style="animation-play-state:paused" ></path>
<path d="M 432 365 L 429 458 L 527 354 Z" stroke="#ac693c" fill="#ac693c" style="animation-play-state:paused" ></path>
<path d="M 527 354 L 429 458 L 551 464 Z" stroke="#a05f36" fill="#a05f36" style="animation-play-state:paused" ></path>
<path d="M 945 458 L 952 373 L 838 463 Z" stroke="#693721" fill="#693721" style="animation-play-state:paused" ></path>
<path d="M 537 658 L 659 666 L 641 556 Z" stroke="#703b22" fill="#703b22" style="animation-play-state:paused" ></path>
<path d="M 641 556 L 659 666 L 746 563 Z" stroke="#693721" fill="#693721" style="animation-play-state:paused" ></path>
<path d="M 746 563 L 848 662 L 820 557 Z" stroke="#572c1e" fill="#572c1e" style="animation-play-state:paused" ></path>
<path d="M 557 267 L 432 365 L 527 354 Z" stroke="#b46f40" fill="#b46f40" style="animation-play-state:paused" ></path>
<path d="M 850 269 L 727 145 L 750 283 Z" stroke="#ab683c" fill="#ab683c" style="animation-play-state:paused" ></path>
<path d="M 638 248 L 549 158 L 557 267 Z" stroke="#c37b47" fill="#c37b47" style="animation-play-state:paused" ></path>
<path d="M 659 666 L 748 687 L 746 563 Z" stroke="#5e3120" fill="#5e3120" style="animation-play-state:paused" ></path>
<path d="M 820 557 L 939 570 L 945 458 Z" stroke="#552b1e" fill="#552b1e" style="animation-play-state:paused" ></path>
<path d="M 727 145 L 628 149 L 638 248 Z" stroke="#c67d48" fill="#c67d48" style="animation-play-state:paused" ></path>
<path d="M 557 267 L 420 246 L 432 365 Z" stroke="#c17946" fill="#c17946" style="animation-play-state:paused" ></path>
<path d="M 848 662 L 939 570 L 820 557 Z" stroke="#4d271c" fill="#4d271c" style="animation-play-state:paused" ></path>
<path d="M 1019 351 L 936 273 L 952 373 Z" stroke="#7c4325" fill="#7c4325" style="animation-play-state:paused" ></path>
<path d="M 748 687 L 848 662 L 746 563 Z" stroke="#552b1e" fill="#552b1e" style="animation-play-state:paused" ></path>
<path d="M 459 668 L 537 658 L 542 555 Z" stroke="#804727" fill="#804727" style="animation-play-state:paused" ></path>
<path d="M 542 555 L 537 658 L 641 556 Z" stroke="#7a4225" fill="#7a4225" style="animation-play-state:paused" ></path>
<path d="M 659 666 L 726 764 L 748 687 Z" stroke="#592e1f" fill="#592e1f" style="animation-play-state:paused" ></path>
<path d="M 326 462 L 425 556 L 429 458 Z" stroke="#a56339" fill="#a56339" style="animation-play-state:paused" ></path>
<path d="M 429 458 L 425 556 L 542 555 Z" stroke="#955631" fill="#955631" style="animation-play-state:paused" ></path>
<path d="M 952 373 L 936 273 L 820 344 Z" stroke="#834929" fill="#834929" style="animation-play-state:paused" ></path>
<path d="M 850 269 L 823 145 L 727 145 Z" stroke="#b67041" fill="#b67041" style="animation-play-state:paused" ></path>
<path d="M 1019 351 L 952 373 L 945 458 Z" stroke="#6b3822" fill="#6b3822" style="animation-play-state:paused" ></path>
<path d="M 934 140 L 823 145 L 850 269 Z" stroke="#b06b3e" fill="#b06b3e" style="animation-play-state:paused" ></path>
<path d="M 741 45 L 638 65 L 628 149 Z" stroke="#da9459" fill="#da9459" style="animation-play-state:paused" ></path>
<path d="M 638 65 L 549 158 L 628 149 Z" stroke="#d99055" fill="#d99055" style="animation-play-state:paused" ></path>
<path d="M 628 149 L 549 158 L 638 248 Z" stroke="#cb814b" fill="#cb814b" style="animation-play-state:paused" ></path>
<path d="M 443 176 L 420 246 L 557 267 Z" stroke="#cf854d" fill="#cf854d" style="animation-play-state:paused" ></path>
<path d="M 432 365 L 326 462 L 429 458 Z" stroke="#af6b3e" fill="#af6b3e" style="animation-play-state:paused" ></path>
<path d="M 641 741 L 726 764 L 659 666 Z" stroke="#5e3020" fill="#5e3020" style="animation-play-state:paused" ></path>
<path d="M 748 687 L 834 770 L 848 662 Z" stroke="#49251b" fill="#49251b" style="animation-play-state:paused" ></path>
<path d="M 537 658 L 641 741 L 659 666 Z" stroke="#6b3822" fill="#6b3822" style="animation-play-state:paused" ></path>
<path d="M 848 662 L 933 648 L 939 570 Z" stroke="#43221a" fill="#43221a" style="animation-play-state:paused" ></path>
<path d="M 932 741 L 933 648 L 848 662 Z" stroke="#3c1e18" fill="#3c1e18" style="animation-play-state:paused" ></path>
<path d="M 1035 461 L 945 458 L 939 570 Z" stroke="#522a1d" fill="#522a1d" style="animation-play-state:paused" ></path>
<path d="M 1035 461 L 1019 351 L 945 458 Z" stroke="#613220" fill="#613220" style="animation-play-state:paused" ></path>
<path d="M 549 158 L 443 176 L 557 267 Z" stroke="#d1874e" fill="#d1874e" style="animation-play-state:paused" ></path>
<path d="M 425 556 L 459 668 L 542 555 Z" stroke="#8a4e2c" fill="#8a4e2c" style="animation-play-state:paused" ></path>
<path d="M 537 658 L 550 762 L 641 741 Z" stroke="#6e3a22" fill="#6e3a22" style="animation-play-state:paused" ></path>
<path d="M 346 370 L 432 365 L 420 246 Z" stroke="#c37b47" fill="#c37b47" style="animation-play-state:paused" ></path>
<path d="M 346 370 L 326 462 L 432 365 Z" stroke="#b97342" fill="#b97342" style="animation-play-state:paused" ></path>
<path d="M 425 556 L 361 564 L 459 668 Z" stroke="#935530" fill="#935530" style="animation-play-state:paused" ></path>
<path d="M 1034 180 L 934 140 L 936 273 Z" stroke="#a36138" fill="#a36138" style="animation-play-state:paused" ></path>
<path d="M 936 273 L 934 140 L 850 269 Z" stroke="#a05f36" fill="#a05f36" style="animation-play-state:paused" ></path>
<path d="M 333 250 L 346 370 L 420 246 Z" stroke="#d0854d" fill="#d0854d" style="animation-play-state:paused" ></path>
<path d="M 1055 563 L 1035 461 L 939 570 Z" stroke="#46231b" fill="#46231b" style="animation-play-state:paused" ></path>
<path d="M 741 45 L 727 145 L 823 145 Z" stroke="#cf854d" fill="#cf854d" style="animation-play-state:paused" ></path>
<path d="M 741 45 L 628 149 L 727 145 Z" stroke="#d58a50" fill="#d58a50" style="animation-play-state:paused" ></path>
<path d="M 549 158 L 443 65 L 443 176 Z" stroke="#db9c61" fill="#db9c61" style="animation-play-state:paused" ></path>
<path d="M 818 46 L 741 45 L 823 145 Z" stroke="#d78b50" fill="#d78b50" style="animation-play-state:paused" ></path>
<path d="M 550 762 L 834 770 L 726 764 Z" stroke="#582d1f" fill="#582d1f" style="animation-play-state:paused" ></path>
<path d="M 726 764 L 834 770 L 748 687 Z" stroke="#4e271c" fill="#4e271c" style="animation-play-state:paused" ></path>
<path d="M 326 462 L 361 564 L 425 556 Z" stroke="#a36238" fill="#a36238" style="animation-play-state:paused" ></path>
<path d="M 459 668 L 550 762 L 537 658 Z" stroke="#7a4224" fill="#7a4224" style="animation-play-state:paused" ></path>
<path d="M 641 741 L 550 762 L 726 764 Z" stroke="#633320" fill="#633320" style="animation-play-state:paused" ></path>
<path d="M 437 737 L 550 762 L 459 668 Z" stroke="#7e4526" fill="#7e4526" style="animation-play-state:paused" ></path>
<path d="M 1019 351 L 1045 265 L 936 273 Z" stroke="#834929" fill="#834929" style="animation-play-state:paused" ></path>
<path d="M 1147 366 L 1045 265 L 1019 351 Z" stroke="#743e23" fill="#743e23" style="animation-play-state:paused" ></path>
<path d="M 934 140 L 818 46 L 823 145 Z" stroke="#c77e49" fill="#c77e49" style="animation-play-state:paused" ></path>
<path d="M 1062 674 L 1055 563 L 933 648 Z" stroke="#321a15" fill="#321a15" style="animation-play-state:paused" ></path>
<path d="M 933 648 L 1055 563 L 939 570 Z" stroke="#3e1f19" fill="#3e1f19" style="animation-play-state:paused" ></path>
<path d="M 1035 461 L 1133 438 L 1019 351 Z" stroke="#5c2f1f" fill="#5c2f1f" style="animation-play-state:paused" ></path>
<path d="M 347 144 L 333 250 L 420 246 Z" stroke="#da955a" fill="#da955a" style="animation-play-state:paused" ></path>
<path d="M 346 370 L 234 446 L 326 462 Z" stroke="#be7745" fill="#be7745" style="animation-play-state:paused" ></path>
<path d="M 548 -35 L 527 41 L 638 65 Z" stroke="#e0af78" fill="#e0af78" style="animation-play-state:paused" ></path>
<path d="M 638 65 L 527 41 L 549 158 Z" stroke="#dc9e63" fill="#dc9e63" style="animation-play-state:paused" ></path>
<path d="M 443 176 L 347 144 L 420 246 Z" stroke="#da975b" fill="#da975b" style="animation-play-state:paused" ></path>
<path d="M 834 770 L 932 741 L 848 662 Z" stroke="#3e1f19" fill="#3e1f19" style="animation-play-state:paused" ></path>
<path d="M 345 665 L 437 737 L 459 668 Z" stroke="#8b4f2d" fill="#8b4f2d" style="animation-play-state:paused" ></path>
<path d="M 225 667 L 345 665 L 361 564 Z" stroke="#a16037" fill="#a16037" style="animation-play-state:paused" ></path>
<path d="M 361 564 L 345 665 L 459 668 Z" stroke="#945631" fill="#945631" style="animation-play-state:paused" ></path>
<path d="M 1045 265 L 1034 180 L 936 273 Z" stroke="#935530" fill="#935530" style="animation-play-state:paused" ></path>
<path d="M 934 140 L 929 62 L 818 46 Z" stroke="#cd834c" fill="#cd834c" style="animation-play-state:paused" ></path>
<path d="M 1052 78 L 929 62 L 934 140 Z" stroke="#c37b47" fill="#c37b47" style="animation-play-state:paused" ></path>
<path d="M 527 41 L 443 65 L 549 158 Z" stroke="#dda56b" fill="#dda56b" style="animation-play-state:paused" ></path>
<path d="M 1136 542 L 1133 438 L 1035 461 Z" stroke="#47241b" fill="#47241b" style="animation-play-state:paused" ></path>
<path d="M 1045 265 L 1133 252 L 1034 180 Z" stroke="#90532f" fill="#90532f" style="animation-play-state:paused" ></path>
<path d="M 443 65 L 347 144 L 443 176 Z" stroke="#dda56b" fill="#dda56b" style="animation-play-state:paused" ></path>
<path d="M 932 741 L 1062 674 L 933 648 Z" stroke="#301915" fill="#301915" style="animation-play-state:paused" ></path>
<path d="M 1055 563 L 1136 542 L 1035 461 Z" stroke="#402019" fill="#402019" style="animation-play-state:paused" ></path>
<path d="M 1133 438 L 1147 366 L 1019 351 Z" stroke="#613220" fill="#613220" style="animation-play-state:paused" ></path>
<path d="M 229 344 L 234 446 L 346 370 Z" stroke="#ca804a" fill="#ca804a" style="animation-play-state:paused" ></path>
<path d="M 326 462 L 222 563 L 361 564 Z" stroke="#ae6a3d" fill="#ae6a3d" style="animation-play-state:paused" ></path>
<path d="M 229 344 L 346 370 L 227 263 Z" stroke="#d68a50" fill="#d68a50" style="animation-play-state:paused" ></path>
<path d="M 227 263 L 346 370 L 333 250 Z" stroke="#d88c51" fill="#d88c51" style="animation-play-state:paused" ></path>
<path d="M 1127 645 L 1136 542 L 1055 563 Z" stroke="#2f1814" fill="#2f1814" style="animation-play-state:paused" ></path>
<path d="M 1133 438 L 1236 439 L 1147 366 Z" stroke="#532a1e" fill="#532a1e" style="animation-play-state:paused" ></path>
<path d="M 527 41 L 428 -65 L 443 65 Z" stroke="#e3bc88" fill="#e3bc88" style="animation-play-state:paused" ></path>
<path d="M 637 -57 L 548 -35 L 638 65 Z" stroke="#e1b57f" fill="#e1b57f" style="animation-play-state:paused" ></path>
<path d="M 637 -57 L 638 65 L 741 45 Z" stroke="#dea86e" fill="#dea86e" style="animation-play-state:paused" ></path>
<path d="M 730 -58 L 741 45 L 844 -51 Z" stroke="#dfab72" fill="#dfab72" style="animation-play-state:paused" ></path>
<path d="M 844 -51 L 741 45 L 818 46 Z" stroke="#dc9e63" fill="#dc9e63" style="animation-play-state:paused" ></path>
<path d="M 730 -58 L 637 -57 L 741 45 Z" stroke="#e0b17a" fill="#e0b17a" style="animation-play-state:paused" ></path>
<path d="M 1134 154 L 1133 252 L 1232 247 Z" stroke="#8e512e" fill="#8e512e" style="animation-play-state:paused" ></path>
<path d="M 1147 366 L 1133 252 L 1045 265 Z" stroke="#7a4325" fill="#7a4325" style="animation-play-state:paused" ></path>
<path d="M 254 159 L 227 263 L 333 250 Z" stroke="#dc9f65" fill="#dc9f65" style="animation-play-state:paused" ></path>
<path d="M 148 463 L 222 563 L 234 446 Z" stroke="#c47c47" fill="#c47c47" style="animation-play-state:paused" ></path>
<path d="M 234 446 L 222 563 L 326 462 Z" stroke="#ba7443" fill="#ba7443" style="animation-play-state:paused" ></path>
<path d="M 920 -37 L 844 -51 L 929 62 Z" stroke="#dc9e63" fill="#dc9e63" style="animation-play-state:paused" ></path>
<path d="M 929 62 L 844 -51 L 818 46 Z" stroke="#da975c" fill="#da975c" style="animation-play-state:paused" ></path>
<path d="M 1052 78 L 934 140 L 1034 180 Z" stroke="#b46f40" fill="#b46f40" style="animation-play-state:paused" ></path>
<path d="M 234 755 L 344 771 L 345 665 Z" stroke="#9c5c34" fill="#9c5c34" style="animation-play-state:paused" ></path>
<path d="M 345 665 L 344 771 L 437 737 Z" stroke="#90532f" fill="#90532f" style="animation-play-state:paused" ></path>
<path d="M 437 737 L 344 771 L 550 762 Z" stroke="#834929" fill="#834929" style="animation-play-state:paused" ></path>
<path d="M 932 741 L 1029 777 L 1062 674 Z" stroke="#271511" fill="#271511" style="animation-play-state:paused" ></path>
<path d="M 1062 674 L 1127 645 L 1055 563 Z" stroke="#291512" fill="#291512" style="animation-play-state:paused" ></path>
<path d="M 834 770 L 1029 777 L 932 741 Z" stroke="#321915" fill="#321915" style="animation-play-state:paused" ></path>
<path d="M 550 762 L 1029 777 L 834 770 Z" stroke="#47241b" fill="#47241b" style="animation-play-state:paused" ></path>
<path d="M 1131 767 L 1127 645 L 1062 674 Z" stroke="#1d0e0b" fill="#1d0e0b" style="animation-play-state:paused" ></path>
<path d="M 443 65 L 347 64 L 347 144 Z" stroke="#e0b27a" fill="#e0b27a" style="animation-play-state:paused" ></path>
<path d="M 347 144 L 254 159 L 333 250 Z" stroke="#dda369" fill="#dda369" style="animation-play-state:paused" ></path>
<path d="M 428 -65 L 347 64 L 443 65 Z" stroke="#e4c08e" fill="#e4c08e" style="animation-play-state:paused" ></path>
<path d="M 1134 154 L 1052 78 L 1034 180 Z" stroke="#ae6a3d" fill="#ae6a3d" style="animation-play-state:paused" ></path>
<path d="M 222 563 L 225 667 L 361 564 Z" stroke="#ab683c" fill="#ab683c" style="animation-play-state:paused" ></path>
<path d="M 347 64 L 254 159 L 347 144 Z" stroke="#e0b17a" fill="#e0b17a" style="animation-play-state:paused" ></path>
<path d="M 132 344 L 148 463 L 229 344 Z" stroke="#d88e53" fill="#d88e53" style="animation-play-state:paused" ></path>
<path d="M 1133 252 L 1134 154 L 1034 180 Z" stroke="#9a5a33" fill="#9a5a33" style="animation-play-state:paused" ></path>
<path d="M 1229 362 L 1133 252 L 1147 366 Z" stroke="#6d3922" fill="#6d3922" style="animation-play-state:paused" ></path>
<path d="M 1020 -39 L 920 -37 L 929 62 Z" stroke="#da985d" fill="#da985d" style="animation-play-state:paused" ></path>
<path d="M 721 -138 L 638 -131 L 730 -58 Z" stroke="#e7ca9b" fill="#e7ca9b" style="animation-play-state:paused" ></path>
<path d="M 529 -124 L 428 -65 L 548 -35 Z" stroke="#e9d0a4" fill="#e9d0a4" style="animation-play-state:paused" ></path>
<path d="M 548 -35 L 428 -65 L 527 41 Z" stroke="#e5c290" fill="#e5c290" style="animation-play-state:paused" ></path>
<path d="M 347 64 L 229 44 L 254 159 Z" stroke="#e3be8a" fill="#e3be8a" style="animation-play-state:paused" ></path>
<path d="M 529 -124 L 548 -35 L 637 -57 Z" stroke="#e7c99b" fill="#e7c99b" style="animation-play-state:paused" ></path>
<path d="M 1246 566 L 1236 439 L 1136 542 Z" stroke="#341a16" fill="#341a16" style="animation-play-state:paused" ></path>
<path d="M 1136 542 L 1236 439 L 1133 438 Z" stroke="#43221a" fill="#43221a" style="animation-play-state:paused" ></path>
<path d="M 229 344 L 148 463 L 234 446 Z" stroke="#cf844d" fill="#cf844d" style="animation-play-state:paused" ></path>
<path d="M 222 563 L 149 585 L 225 667 Z" stroke="#b77141" fill="#b77141" style="animation-play-state:paused" ></path>
<path d="M 132 344 L 229 344 L 136 269 Z" stroke="#db9b60" fill="#db9b60" style="animation-play-state:paused" ></path>
<path d="M 1236 439 L 1229 362 L 1147 366 Z" stroke="#582d1f" fill="#582d1f" style="animation-play-state:paused" ></path>
<path d="M 721 -138 L 730 -58 L 827 -151 Z" stroke="#e6c798" fill="#e6c798" style="animation-play-state:paused" ></path>
<path d="M 730 -58 L 638 -131 L 637 -57 Z" stroke="#e5c494" fill="#e5c494" style="animation-play-state:paused" ></path>
<path d="M 1029 777 L 1131 767 L 1062 674 Z" stroke="#1d0e0b" fill="#1d0e0b" style="animation-play-state:paused" ></path>
<path d="M 1127 645 L 1246 566 L 1136 542 Z" stroke="#271411" fill="#271411" style="animation-play-state:paused" ></path>
<path d="M 1229 362 L 1232 247 L 1133 252 Z" stroke="#764023" fill="#764023" style="animation-play-state:paused" ></path>
<path d="M 1134 154 L 1161 78 L 1052 78 Z" stroke="#b67141" fill="#b67141" style="animation-play-state:paused" ></path>
<path d="M 1052 78 L 1020 -39 L 929 62 Z" stroke="#d5894f" fill="#d5894f" style="animation-play-state:paused" ></path>
<path d="M 148 463 L 149 585 L 222 563 Z" stroke="#c27a47" fill="#c27a47" style="animation-play-state:paused" ></path>
<path d="M 1228 669 L 1246 566 L 1127 645 Z" stroke="#1d0e0b" fill="#1d0e0b" style="animation-play-state:paused" ></path>
<path d="M 1236 439 L 1341 458 L 1229 362 Z" stroke="#4a251c" fill="#4a251c" style="animation-play-state:paused" ></path>
<path d="M 136 269 L 229 344 L 227 263 Z" stroke="#db9b60" fill="#db9b60" style="animation-play-state:paused" ></path>
<path d="M 47 556 L 129 662 L 149 585 Z" stroke="#c77e49" fill="#c77e49" style="animation-play-state:paused" ></path>
<path d="M 827 -151 L 730 -58 L 844 -51 Z" stroke="#e3bc88" fill="#e3bc88" style="animation-play-state:paused" ></path>
<path d="M 148 749 L 234 755 L 225 667 Z" stroke="#ae6a3d" fill="#ae6a3d" style="animation-play-state:paused" ></path>
<path d="M 225 667 L 234 755 L 345 665 Z" stroke="#a46238" fill="#a46238" style="animation-play-state:paused" ></path>
<path d="M 344 771 L -153 782 L 550 762 Z" stroke="#a56339" fill="#a56339" style="animation-play-state:paused" ></path>
<path d="M 638 -131 L 529 -124 L 637 -57 Z" stroke="#e9d0a4" fill="#e9d0a4" style="animation-play-state:paused" ></path>
<path d="M 721 -138 L 529 -124 L 638 -131 Z" stroke="#ebd5ac" fill="#ebd5ac" style="animation-play-state:paused" ></path>
<path d="M 1235 162 L 1161 78 L 1134 154 Z" stroke="#aa673b" fill="#aa673b" style="animation-play-state:paused" ></path>
<path d="M 1135 -58 L 1020 -39 L 1052 78 Z" stroke="#d99256" fill="#d99256" style="animation-play-state:paused" ></path>
<path d="M 931 -144 L 827 -151 L 844 -51 Z" stroke="#e4c08e" fill="#e4c08e" style="animation-play-state:paused" ></path>
<path d="M 148 167 L 136 269 L 227 263 Z" stroke="#dfab72" fill="#dfab72" style="animation-play-state:paused" ></path>
<path d="M 148 167 L 227 263 L 254 159 Z" stroke="#dfae75" fill="#dfae75" style="animation-play-state:paused" ></path>
<path d="M 931 -144 L 844 -51 L 920 -37 Z" stroke="#e1b37c" fill="#e1b37c" style="animation-play-state:paused" ></path>
<path d="M 721 -138 L 437 -146 L 529 -124 Z" stroke="#eedbb6" fill="#eedbb6" style="animation-play-state:paused" ></path>
<path d="M 334 -63 L 347 64 L 428 -65 Z" stroke="#e9cea2" fill="#e9cea2" style="animation-play-state:paused" ></path>
<path d="M 232 -21 L 229 44 L 347 64 Z" stroke="#e8cc9f" fill="#e8cc9f" style="animation-play-state:paused" ></path>
<path d="M 339 -125 L 334 -63 L 428 -65 Z" stroke="#efdebb" fill="#efdebb" style="animation-play-state:paused" ></path>
<path d="M 1131 767 L 1228 669 L 1127 645 Z" stroke="#1d0e0b" fill="#1d0e0b" style="animation-play-state:paused" ></path>
<path d="M 1337 354 L 1232 247 L 1229 362 Z" stroke="#683621" fill="#683621" style="animation-play-state:paused" ></path>
<path d="M 138 76 L 148 167 L 254 159 Z" stroke="#e4bf8c" fill="#e4bf8c" style="animation-play-state:paused" ></path>
<path d="M 1232 247 L 1235 162 L 1134 154 Z" stroke="#965732" fill="#965732" style="animation-play-state:paused" ></path>
<path d="M 1363 172 L 1235 162 L 1232 247 Z" stroke="#90532f" fill="#90532f" style="animation-play-state:paused" ></path>
<path d="M 1341 458 L 1236 439 L 1246 566 Z" stroke="#351b16" fill="#351b16" style="animation-play-state:paused" ></path>
<path d="M 149 585 L 129 662 L 225 667 Z" stroke="#b97342" fill="#b97342" style="animation-play-state:paused" ></path>
<path d="M 47 556 L 149 585 L 148 463 Z" stroke="#cd834c" fill="#cd834c" style="animation-play-state:paused" ></path>
<path d="M 1037 -153 L 931 -144 L 1020 -39 Z" stroke="#e2b882" fill="#e2b882" style="animation-play-state:paused" ></path>
<path d="M 1020 -39 L 931 -144 L 920 -37 Z" stroke="#dfae76" fill="#dfae76" style="animation-play-state:paused" ></path>
<path d="M 827 -151 L 437 -146 L 721 -138 Z" stroke="#ecd6ae" fill="#ecd6ae" style="animation-play-state:paused" ></path>
<path d="M 529 -124 L 437 -146 L 428 -65 Z" stroke="#eeddb8" fill="#eeddb8" style="animation-play-state:paused" ></path>
<path d="M 334 -63 L 232 -21 L 347 64 Z" stroke="#ead1a6" fill="#ead1a6" style="animation-play-state:paused" ></path>
<path d="M 229 44 L 138 76 L 254 159 Z" stroke="#e6c594" fill="#e6c594" style="animation-play-state:paused" ></path>
<path d="M 243 -113 L 232 -21 L 334 -63 Z" stroke="#f1e3c2" fill="#f1e3c2" style="animation-play-state:paused" ></path>
<path d="M 1335 545 L 1341 458 L 1246 566 Z" stroke="#291512" fill="#291512" style="animation-play-state:paused" ></path>
<path d="M 1341 458 L 1337 354 L 1229 362 Z" stroke="#50291d" fill="#50291d" style="animation-play-state:paused" ></path>
<path d="M 1237 60 L 1135 -58 L 1161 78 Z" stroke="#cd834c" fill="#cd834c" style="animation-play-state:paused" ></path>
<path d="M 1161 78 L 1135 -58 L 1052 78 Z" stroke="#ce844c" fill="#ce844c" style="animation-play-state:paused" ></path>
<path d="M 46 360 L 54 465 L 132 344 Z" stroke="#db9b60" fill="#db9b60" style="animation-play-state:paused" ></path>
<path d="M 132 344 L 54 465 L 148 463 Z" stroke="#d99155" fill="#d99155" style="animation-play-state:paused" ></path>
<path d="M 46 360 L 132 344 L 136 269 Z" stroke="#dda368" fill="#dda368" style="animation-play-state:paused" ></path>
<path d="M 157 -45 L 138 76 L 229 44 Z" stroke="#ecd7b0" fill="#ecd7b0" style="animation-play-state:paused" ></path>
<path d="M 42 252 L 46 360 L 136 269 Z" stroke="#dfac74" fill="#dfac74" style="animation-play-state:paused" ></path>
<path d="M 34 674 L 148 749 L 129 662 Z" stroke="#c17946" fill="#c17946" style="animation-play-state:paused" ></path>
<path d="M 129 662 L 148 749 L 225 667 Z" stroke="#b67041" fill="#b67041" style="animation-play-state:paused" ></path>
<path d="M 234 755 L 148 749 L 344 771 Z" stroke="#a66439" fill="#a66439" style="animation-play-state:paused" ></path>
<path d="M 1131 767 L 1235 777 L 1228 669 Z" stroke="#1d0e0b" fill="#1d0e0b" style="animation-play-state:paused" ></path>
<path d="M 1228 669 L 1335 545 L 1246 566 Z" stroke="#1d0e0b" fill="#1d0e0b" style="animation-play-state:paused" ></path>
<path d="M 1029 777 L 1235 777 L 1131 767 Z" stroke="#1d0e0b" fill="#1d0e0b" style="animation-play-state:paused" ></path>
<path d="M 1359 765 L 1235 777 L 1029 777 Z" stroke="#1d0e0b" fill="#1d0e0b" style="animation-play-state:paused" ></path>
<path d="M 1351 47 L 1237 60 L 1235 162 Z" stroke="#b36e3f" fill="#b36e3f" style="animation-play-state:paused" ></path>
<path d="M 1235 162 L 1237 60 L 1161 78 Z" stroke="#b26d3f" fill="#b26d3f" style="animation-play-state:paused" ></path>
<path d="M 42 252 L 136 269 L 39 172 Z" stroke="#e2b883" fill="#e2b883" style="animation-play-state:paused" ></path>
<path d="M 1334 679 L 1335 545 L 1228 669 Z" stroke="#1d0e0b" fill="#1d0e0b" style="animation-play-state:paused" ></path>
<path d="M 1455 356 L 1347 281 L 1337 354 Z" stroke="#603120" fill="#603120" style="animation-play-state:paused" ></path>
<path d="M 437 -146 L 339 -125 L 428 -65 Z" stroke="#f1e2c1" fill="#f1e2c1" style="animation-play-state:paused" ></path>
<path d="M 232 -21 L 157 -45 L 229 44 Z" stroke="#eedbb6" fill="#eedbb6" style="animation-play-state:paused" ></path>
<path d="M 931 -144 L 1037 -153 L 827 -151 Z" stroke="#e6c797" fill="#e6c797" style="animation-play-state:paused" ></path>
<path d="M 1135 -58 L 1037 -153 L 1020 -39 Z" stroke="#dfab72" fill="#dfab72" style="animation-play-state:paused" ></path>
<path d="M -53 581 L 47 556 L 54 465 Z" stroke="#d99256" fill="#d99256" style="animation-play-state:paused" ></path>
<path d="M 54 465 L 47 556 L 148 463 Z" stroke="#d78b50" fill="#d78b50" style="animation-play-state:paused" ></path>
<path d="M 1455 356 L 1337 354 L 1341 458 Z" stroke="#4d271c" fill="#4d271c" style="animation-play-state:paused" ></path>
<path d="M 1337 354 L 1347 281 L 1232 247 Z" stroke="#6e3a22" fill="#6e3a22" style="animation-play-state:paused" ></path>
<path d="M 39 172 L 136 269 L 148 167 Z" stroke="#e2b984" fill="#e2b984" style="animation-play-state:paused" ></path>
<path d="M -53 581 L 34 674 L 47 556 Z" stroke="#d88c51" fill="#d88c51" style="animation-play-state:paused" ></path>
<path d="M 38 737 L 34 674 L -49 678 Z" stroke="#d2874e" fill="#d2874e" style="animation-play-state:paused" ></path>
<path d="M 47 556 L 34 674 L 129 662 Z" stroke="#cb814b" fill="#cb814b" style="animation-play-state:paused" ></path>
<path d="M 43 58 L 39 172 L 148 167 Z" stroke="#e8cc9e" fill="#e8cc9e" style="animation-play-state:paused" ></path>
<path d="M 43 58 L 148 167 L 138 76 Z" stroke="#e9cea2" fill="#e9cea2" style="animation-play-state:paused" ></path>
<path d="M 339 -125 L 243 -113 L 334 -63 Z" stroke="#f3e7c9" fill="#f3e7c9" style="animation-play-state:paused" ></path>
<path d="M 1235 777 L 1334 679 L 1228 669 Z" stroke="#1d0e0b" fill="#1d0e0b" style="animation-play-state:paused" ></path>
<path d="M 1335 545 L 1444 550 L 1341 458 Z" stroke="#261411" fill="#261411" style="animation-play-state:paused" ></path>
<path d="M 1347 281 L 1363 172 L 1232 247 Z" stroke="#814828" fill="#814828" style="animation-play-state:paused" ></path>
<path d="M 1243 -35 L 1153 -123 L 1135 -58 Z" stroke="#dda268" fill="#dda268" style="animation-play-state:paused" ></path>
<path d="M 1243 -35 L 1135 -58 L 1237 60 Z" stroke="#d88c51" fill="#d88c51" style="animation-play-state:paused" ></path>
<path d="M 1135 -58 L 1153 -123 L 1037 -153 Z" stroke="#e0b27b" fill="#e0b27b" style="animation-play-state:paused" ></path>
<path d="M 243 -113 L 157 -45 L 232 -21 Z" stroke="#f3e7c9" fill="#f3e7c9" style="animation-play-state:paused" ></path>
<path d="M 1351 47 L 1243 -35 L 1237 60 Z" stroke="#c9804a" fill="#c9804a" style="animation-play-state:paused" ></path>
<path d="M 157 -45 L 43 58 L 138 76 Z" stroke="#eeddb9" fill="#eeddb9" style="animation-play-state:paused" ></path>
<path d="M -71 352 L 46 360 L 42 252 Z" stroke="#e0b17a" fill="#e0b17a" style="animation-play-state:paused" ></path>
<path d="M 1363 172 L 1351 47 L 1235 162 Z" stroke="#a56339" fill="#a56339" style="animation-play-state:paused" ></path>
<path d="M 1243 -35 L 1238 -126 L 1153 -123 Z" stroke="#dea86f" fill="#dea86f" style="animation-play-state:paused" ></path>
<path d="M 34 674 L 38 737 L 148 749 Z" stroke="#c57d48" fill="#c57d48" style="animation-play-state:paused" ></path>
<path d="M -53 581 L 54 465 L -72 443 Z" stroke="#db9d62" fill="#db9d62" style="animation-play-state:paused" ></path>
<path d="M 550 762 L 1359 765 L 1029 777 Z" stroke="#2a1612" fill="#2a1612" style="animation-play-state:paused" ></path>
<path d="M 1235 777 L 1359 765 L 1334 679 Z" stroke="#1d0e0b" fill="#1d0e0b" style="animation-play-state:paused" ></path>
<path d="M 1433 651 L 1444 550 L 1335 545 Z" stroke="#1d0e0b" fill="#1d0e0b" style="animation-play-state:paused" ></path>
<path d="M 1433 651 L 1335 545 L 1334 679 Z" stroke="#1d0e0b" fill="#1d0e0b" style="animation-play-state:paused" ></path>
<path d="M 1347 281 L 1418 245 L 1363 172 Z" stroke="#7f4627" fill="#7f4627" style="animation-play-state:paused" ></path>
<path d="M 1363 172 L 1442 164 L 1351 47 Z" stroke="#a26137" fill="#a26137" style="animation-play-state:paused" ></path>
<path d="M 1460 485 L 1455 356 L 1341 458 Z" stroke="#3d1f18" fill="#3d1f18" style="animation-play-state:paused" ></path>
<path d="M -72 443 L 46 360 L -71 352 Z" stroke="#dfad75" fill="#dfad75" style="animation-play-state:paused" ></path>
<path d="M -72 443 L 54 465 L 46 360 Z" stroke="#dca167" fill="#dca167" style="animation-play-state:paused" ></path>
<path d="M 1455 356 L 1418 245 L 1347 281 Z" stroke="#6a3822" fill="#6a3822" style="animation-play-state:paused" ></path>
<path d="M -71 352 L 42 252 L -74 256 Z" stroke="#e3bd89" fill="#e3bd89" style="animation-play-state:paused" ></path>
<path d="M 1444 550 L 1460 485 L 1341 458 Z" stroke="#291512" fill="#291512" style="animation-play-state:paused" ></path>
<path d="M 1451 63 L 1442 164 L 1525 141 Z" stroke="#a26037" fill="#a26037" style="animation-play-state:paused" ></path>
<path d="M -74 256 L 42 252 L -53 175 Z" stroke="#e6c797" fill="#e6c797" style="animation-play-state:paused" ></path>
<path d="M 1435 764 L 1433 651 L 1334 679 Z" stroke="#1d0e0b" fill="#1d0e0b" style="animation-play-state:paused" ></path>
<path d="M 1558 478 L 1527 347 L 1460 485 Z" stroke="#391d17" fill="#391d17" style="animation-play-state:paused" ></path>
<path d="M -53 175 L 42 252 L 39 172 Z" stroke="#e6c797" fill="#e6c797" style="animation-play-state:paused" ></path>
<path d="M 1365 -29 L 1243 -35 L 1351 47 Z" stroke="#d2874e" fill="#d2874e" style="animation-play-state:paused" ></path>
<path d="M 1335 -163 L 1238 -126 L 1243 -35 Z" stroke="#dfab72" fill="#dfab72" style="animation-play-state:paused" ></path>
<path d="M 1153 -123 L 1238 -126 L 1037 -153 Z" stroke="#e2b882" fill="#e2b882" style="animation-play-state:paused" ></path>
<path d="M 157 -45 L 32 -51 L 43 58 Z" stroke="#f4e7cb" fill="#f4e7cb" style="animation-play-state:paused" ></path>
<path d="M 43 58 L -53 175 L 39 172 Z" stroke="#ead3a9" fill="#ead3a9" style="animation-play-state:paused" ></path>
<path d="M 243 -113 L 125 -133 L 157 -45 Z" stroke="#f6e9cf" fill="#f6e9cf" style="animation-play-state:paused" ></path>
<path d="M 339 -125 L 125 -133 L 243 -113 Z" stroke="#f6e9d0" fill="#f6e9d0" style="animation-play-state:paused" ></path>
<path d="M 437 -146 L 125 -133 L 339 -125 Z" stroke="#f6e9ce" fill="#f6e9ce" style="animation-play-state:paused" ></path>
<path d="M 1442 164 L 1418 245 L 1525 141 Z" stroke="#8d512d" fill="#8d512d" style="animation-play-state:paused" ></path>
<path d="M 1418 245 L 1442 164 L 1363 172 Z" stroke="#8b4f2c" fill="#8b4f2c" style="animation-play-state:paused" ></path>
<path d="M -150 563 L -49 678 L -53 581 Z" stroke="#db9c61" fill="#db9c61" style="animation-play-state:paused" ></path>
<path d="M -53 581 L -49 678 L 34 674 Z" stroke="#d88e53" fill="#d88e53" style="animation-play-state:paused" ></path>
<path d="M -67 63 L -53 175 L 43 58 Z" stroke="#efdebb" fill="#efdebb" style="animation-play-state:paused" ></path>
<path d="M 1451 63 L 1365 -29 L 1351 47 Z" stroke="#c57c48" fill="#c57c48" style="animation-play-state:paused" ></path>
<path d="M 125 -133 L 32 -51 L 157 -45 Z" stroke="#f7e9d0" fill="#f7e9d0" style="animation-play-state:paused" ></path>
<path d="M -49 678 L -59 751 L 38 737 Z" stroke="#d78b50" fill="#d78b50" style="animation-play-state:paused" ></path>
<path d="M 38 737 L -59 751 L 148 749 Z" stroke="#ca814a" fill="#ca814a" style="animation-play-state:paused" ></path>
<path d="M 148 749 L -153 782 L 344 771 Z" stroke="#bd7644" fill="#bd7644" style="animation-play-state:paused" ></path>
<path d="M -147 655 L -59 751 L -49 678 Z" stroke="#da975c" fill="#da975c" style="animation-play-state:paused" ></path>
<path d="M 32 -51 L -67 63 L 43 58 Z" stroke="#f4e8cb" fill="#f4e8cb" style="animation-play-state:paused" ></path>
<path d="M -147 155 L -154 275 L -74 256 Z" stroke="#ead3a9" fill="#ead3a9" style="animation-play-state:paused" ></path>
<path d="M 1442 164 L 1451 63 L 1351 47 Z" stroke="#ae6a3d" fill="#ae6a3d" style="animation-play-state:paused" ></path>
<path d="M 1365 -29 L 1335 -163 L 1243 -35 Z" stroke="#dc9e64" fill="#dc9e64" style="animation-play-state:paused" ></path>
<path d="M 1547 261 L 1418 245 L 1455 356 Z" stroke="#6a3822" fill="#6a3822" style="animation-play-state:paused" ></path>
<path d="M 1359 765 L 1435 764 L 1334 679 Z" stroke="#1d0e0b" fill="#1d0e0b" style="animation-play-state:paused" ></path>
<path d="M 1558 478 L 1460 485 L 1542 575 Z" stroke="#21110e" fill="#21110e" style="animation-play-state:paused" ></path>
<path d="M 1460 485 L 1444 550 L 1542 575 Z" stroke="#1d0e0b" fill="#1d0e0b" style="animation-play-state:paused" ></path>
<path d="M 1460 485 L 1527 347 L 1455 356 Z" stroke="#47241b" fill="#47241b" style="animation-play-state:paused" ></path>
<path d="M -147 155 L -74 256 L -53 175 Z" stroke="#ebd5ab" fill="#ebd5ab" style="animation-play-state:paused" ></path>
<path d="M -74 256 L -154 275 L -71 352 Z" stroke="#e6c594" fill="#e6c594" style="animation-play-state:paused" ></path>
<path d="M -176 355 L -146 452 L -72 443 Z" stroke="#e2b882" fill="#e2b882" style="animation-play-state:paused" ></path>
<path d="M -72 443 L -150 563 L -53 581 Z" stroke="#dda46a" fill="#dda46a" style="animation-play-state:paused" ></path>
<path d="M -176 355 L -72 443 L -71 352 Z" stroke="#e2b883" fill="#e2b883" style="animation-play-state:paused" ></path>
<path d="M 1426 -152 L 1335 -163 L 1365 -29 Z" stroke="#deaa71" fill="#deaa71" style="animation-play-state:paused" ></path>
<path d="M 1238 -126 L 1335 -163 L 1037 -153 Z" stroke="#e2ba85" fill="#e2ba85" style="animation-play-state:paused" ></path>
<path d="M 1037 -153 L 1426 -152 L 827 -151 Z" stroke="#e4bf8c" fill="#e4bf8c" style="animation-play-state:paused" ></path>
<path d="M -146 452 L -150 563 L -72 443 Z" stroke="#dfae76" fill="#dfae76" style="animation-play-state:paused" ></path>
<path d="M 1527 347 L 1547 261 L 1455 356 Z" stroke="#5f3120" fill="#5f3120" style="animation-play-state:paused" ></path>
<path d="M -154 275 L -176 355 L -71 352 Z" stroke="#e6c594" fill="#e6c594" style="animation-play-state:paused" ></path>
<path d="M -277 654 L -147 655 L -150 563 Z" stroke="#dfad74" fill="#dfad74" style="animation-play-state:paused" ></path>
<path d="M 1542 575 L 1444 550 L 1433 651 Z" stroke="#1d0e0b" fill="#1d0e0b" style="animation-play-state:paused" ></path>
<path d="M 1527 347 L 1558 478 L 1547 261 Z" stroke="#51291d" fill="#51291d" style="animation-play-state:paused" ></path>
<path d="M 32 -51 L -67 -40 L -67 63 Z" stroke="#f7e9d0" fill="#f7e9d0" style="animation-play-state:paused" ></path>
<path d="M 125 -133 L 48 -142 L 32 -51 Z" stroke="#f9ebd6" fill="#f9ebd6" style="animation-play-state:paused" ></path>
<path d="M 437 -146 L 48 -142 L 125 -133 Z" stroke="#f8ead3" fill="#f8ead3" style="animation-play-state:paused" ></path>
<path d="M 1559 673 L 1542 575 L 1433 651 Z" stroke="#1d0e0b" fill="#1d0e0b" style="animation-play-state:paused" ></path>
<path d="M 1547 261 L 1525 141 L 1418 245 Z" stroke="#814828" fill="#814828" style="animation-play-state:paused" ></path>
<path d="M 1451 63 L 1453 -23 L 1365 -29 Z" stroke="#cc824b" fill="#cc824b" style="animation-play-state:paused" ></path>
<path d="M 1519 44 L 1453 -23 L 1451 63 Z" stroke="#c27a47" fill="#c27a47" style="animation-play-state:paused" ></path>
<path d="M -256 571 L -150 563 L -146 452 Z" stroke="#e1b37c" fill="#e1b37c" style="animation-play-state:paused" ></path>
<path d="M -150 563 L -147 655 L -49 678 Z" stroke="#dc9f65" fill="#dc9f65" style="animation-play-state:paused" ></path>
<path d="M -251 269 L -235 374 L -176 355 Z" stroke="#e9d0a5" fill="#e9d0a5" style="animation-play-state:paused" ></path>
<path d="M -151 58 L -147 155 L -53 175 Z" stroke="#f1e4c3" fill="#f1e4c3" style="animation-play-state:paused" ></path>
<path d="M -151 58 L -53 175 L -67 63 Z" stroke="#f3e6c7" fill="#f3e6c7" style="animation-play-state:paused" ></path>
<path d="M 1435 764 L 1559 673 L 1433 651 Z" stroke="#1d0e0b" fill="#1d0e0b" style="animation-play-state:paused" ></path>
<path d="M -48 -137 L -67 -40 L 32 -51 Z" stroke="#faecd8" fill="#faecd8" style="animation-play-state:paused" ></path>
<path d="M -67 -40 L -151 58 L -67 63 Z" stroke="#f7e9d0" fill="#f7e9d0" style="animation-play-state:paused" ></path>
<path d="M -251 269 L -176 355 L -154 275 Z" stroke="#ead1a6" fill="#ead1a6" style="animation-play-state:paused" ></path>
<path d="M -147 655 L -153 782 L -59 751 Z" stroke="#db9c61" fill="#db9c61" style="animation-play-state:paused" ></path>
<path d="M -59 751 L -153 782 L 148 749 Z" stroke="#d58a50" fill="#d58a50" style="animation-play-state:paused" ></path>
<path d="M 1525 141 L 1519 44 L 1451 63 Z" stroke="#af6b3e" fill="#af6b3e" style="animation-play-state:paused" ></path>
<path d="M 1453 -23 L 1426 -152 L 1365 -29 Z" stroke="#db995e" fill="#db995e" style="animation-play-state:paused" ></path>
<path d="M 1537 -28 L 1519 44 L 1525 141 Z" stroke="#b97342" fill="#b97342" style="animation-play-state:paused" ></path>
<path d="M 1537 -28 L 1525 141 L 1547 261 Z" stroke="#a05f36" fill="#a05f36" style="animation-play-state:paused" ></path>
<path d="M 48 -142 L -48 -137 L 32 -51 Z" stroke="#faedda" fill="#faedda" style="animation-play-state:paused" ></path>
<path d="M -67 -40 L -186 -49 L -151 58 Z" stroke="#f9ecd7" fill="#f9ecd7" style="animation-play-state:paused" ></path>
<path d="M 1435 764 L 1541 762 L 1559 673 Z" stroke="#1d0e0b" fill="#1d0e0b" style="animation-play-state:paused" ></path>
<path d="M 1559 673 L 1541 762 L 1542 575 Z" stroke="#1d0e0b" fill="#1d0e0b" style="animation-play-state:paused" ></path>
<path d="M 1517 -152 L 1426 -152 L 1453 -23 Z" stroke="#dea66d" fill="#dea66d" style="animation-play-state:paused" ></path>
<path d="M 1335 -163 L 1426 -152 L 1037 -153 Z" stroke="#e3ba86" fill="#e3ba86" style="animation-play-state:paused" ></path>
<path d="M 827 -151 L 1426 -152 L 437 -146 Z" stroke="#e7c999" fill="#e7c999" style="animation-play-state:paused" ></path>
<path d="M -251 269 L -154 275 L -147 155 Z" stroke="#eddab4" fill="#eddab4" style="animation-play-state:paused" ></path>
<path d="M -176 355 L -235 374 L -146 452 Z" stroke="#e5c391" fill="#e5c391" style="animation-play-state:paused" ></path>
<path d="M -147 655 L -252 752 L -153 782 Z" stroke="#dea76d" fill="#dea76d" style="animation-play-state:paused" ></path>
<path d="M -235 374 L -274 457 L -146 452 Z" stroke="#e5c392" fill="#e5c392" style="animation-play-state:paused" ></path>
<path d="M -270 174 L -251 269 L -147 155 Z" stroke="#f2e5c5" fill="#f2e5c5" style="animation-play-state:paused" ></path>
<path d="M -235 374 L -251 269 L -274 457 Z" stroke="#e9d0a5" fill="#e9d0a5" style="animation-play-state:paused" ></path>
<path d="M -274 457 L -256 571 L -146 452 Z" stroke="#e3bd8a" fill="#e3bd8a" style="animation-play-state:paused" ></path>
<path d="M 1558 478 L 1537 -28 L 1547 261 Z" stroke="#7a4224" fill="#7a4224" style="animation-play-state:paused" ></path>
<path d="M 1519 44 L 1537 -28 L 1453 -23 Z" stroke="#cd834c" fill="#cd834c" style="animation-play-state:paused" ></path>
<path d="M -151 58 L -270 174 L -147 155 Z" stroke="#f5e8cc" fill="#f5e8cc" style="animation-play-state:paused" ></path>
<path d="M -251 269 L -270 174 L -274 457 Z" stroke="#eddbb5" fill="#eddbb5" style="animation-play-state:paused" ></path>
<path d="M -267 52 L -270 174 L -151 58 Z" stroke="#f7ead2" fill="#f7ead2" style="animation-play-state:paused" ></path>
<path d="M -163 -136 L -186 -49 L -67 -40 Z" stroke="#fceede" fill="#fceede" style="animation-play-state:paused" ></path>
<path d="M -259 -159 L -277 654 L -274 457 Z" stroke="#edd9b2" fill="#edd9b2" style="animation-play-state:paused" ></path>
<path d="M -274 457 L -277 654 L -256 571 Z" stroke="#e4be8b" fill="#e4be8b" style="animation-play-state:paused" ></path>
<path d="M -256 571 L -277 654 L -150 563 Z" stroke="#e1b57e" fill="#e1b57e" style="animation-play-state:paused" ></path>
<path d="M -277 654 L -252 752 L -147 655 Z" stroke="#e0af77" fill="#e0af77" style="animation-play-state:paused" ></path>
<path d="M 1537 -28 L 1517 -152 L 1453 -23 Z" stroke="#da985d" fill="#da985d" style="animation-play-state:paused" ></path>
<path d="M 1426 -152 L 1517 -152 L 437 -146 Z" stroke="#e3bd8a" fill="#e3bd8a" style="animation-play-state:paused" ></path>
<path d="M -238 -44 L -267 52 L -151 58 Z" stroke="#faecd8" fill="#faecd8" style="animation-play-state:paused" ></path>
<path d="M -270 174 L -259 -159 L -274 457 Z" stroke="#f6e9ce" fill="#f6e9ce" style="animation-play-state:paused" ></path>
<path d="M -48 -137 L -163 -136 L -67 -40 Z" stroke="#fcefdf" fill="#fcefdf" style="animation-play-state:paused" ></path>
<path d="M -186 -49 L -238 -44 L -151 58 Z" stroke="#fbedda" fill="#fbedda" style="animation-play-state:paused" ></path>
<path d="M 48 -142 L -163 -136 L -48 -137 Z" stroke="#fcefe0" fill="#fcefe0" style="animation-play-state:paused" ></path>
<path d="M 437 -146 L -163 -136 L 48 -142 Z" stroke="#faecd8" fill="#faecd8" style="animation-play-state:paused" ></path>
<path d="M -259 -159 L -238 -44 L -186 -49 Z" stroke="#fdf1e4" fill="#fdf1e4" style="animation-play-state:paused" ></path>
<path d="M 437 -146 L -259 -159 L -163 -136 Z" stroke="#fcefde" fill="#fcefde" style="animation-play-state:paused" ></path>
<path d="M -163 -136 L -259 -159 L -186 -49 Z" stroke="#fef2e6" fill="#fef2e6" style="animation-play-state:paused" ></path>
<path d="M -238 -44 L -259 -159 L -267 52 Z" stroke="#fdf0e2" fill="#fdf0e2" style="animation-play-state:paused" ></path>
<path d="M -267 52 L -259 -159 L -270 174 Z" stroke="#fbeddb" fill="#fbeddb" style="animation-play-state:paused" ></path></g>
<style type="text/css" style="animation-play-state:paused" >#bk-0.794534530192724 path { stroke-width: 1 }</style></g></svg>